<?xml version="1.0" encoding="UTF-8" standalone="no"?>
<!-- Created with Inkscape (http://www.inkscape.org/) -->

<svg
   xmlns:ns0="http://www.iki.fi/pav/software/textext/"
   xmlns:dc="http://purl.org/dc/elements/1.1/"
   xmlns:cc="http://creativecommons.org/ns#"
   xmlns:rdf="http://www.w3.org/1999/02/22-rdf-syntax-ns#"
   xmlns:svg="http://www.w3.org/2000/svg"
   xmlns="http://www.w3.org/2000/svg"
   xmlns:xlink="http://www.w3.org/1999/xlink"
   xmlns:sodipodi="http://sodipodi.sourceforge.net/DTD/sodipodi-0.dtd"
   xmlns:inkscape="http://www.inkscape.org/namespaces/inkscape"
   width="210mm"
   height="297mm"
   viewBox="0 0 744.09448819 1052.3622047"
   id="svg2"
   version="1.1"
   inkscape:version="0.91 r"
   sodipodi:docname="diag1.svg">
  <sodipodi:namedview
     id="base"
     pagecolor="#ffffff"
     bordercolor="#666666"
     borderopacity="1.0"
     inkscape:pageopacity="0.0"
     inkscape:pageshadow="2"
     inkscape:zoom="2"
     inkscape:cx="289.19313"
     inkscape:cy="892.37764"
     inkscape:document-units="px"
     inkscape:current-layer="layer1"
     showgrid="false"
     inkscape:window-width="1920"
     inkscape:window-height="1050"
     inkscape:window-x="0"
     inkscape:window-y="30"
     inkscape:window-maximized="1" />
  <defs
     id="defs4">
    <marker
       inkscape:isstock="true"
       style="overflow:visible;"
       id="marker16480"
       refX="0.0"
       refY="0.0"
       orient="auto"
       inkscape:stockid="Arrow1Mend">
      <path
         transform="scale(0.4) rotate(180) translate(10,0)"
         style="fill-rule:evenodd;stroke:#000000;stroke-width:1pt;stroke-opacity:1;fill:#e0edfa;fill-opacity:0"
         d="M 0.0,0.0 L 5.0,-5.0 L -12.5,0.0 L 5.0,5.0 L 0.0,0.0 z "
         id="path16482" />
    </marker>
    <marker
       inkscape:stockid="Arrow1Lend"
       orient="auto"
       refY="0.0"
       refX="0.0"
       id="marker16254"
       style="overflow:visible;"
       inkscape:isstock="true">
      <path
         id="path16256"
         d="M 0.0,0.0 L 5.0,-5.0 L -12.5,0.0 L 5.0,5.0 L 0.0,0.0 z "
         style="fill-rule:evenodd;stroke:#000000;stroke-width:1pt;stroke-opacity:1;fill:#e0edfa;fill-opacity:0"
         transform="scale(0.8) rotate(180) translate(12.5,0)" />
    </marker>
    <marker
       inkscape:stockid="Arrow1Lend"
       orient="auto"
       refY="0.0"
       refX="0.0"
       id="marker16174"
       style="overflow:visible;"
       inkscape:isstock="true">
      <path
         id="path16176"
         d="M 0.0,0.0 L 5.0,-5.0 L -12.5,0.0 L 5.0,5.0 L 0.0,0.0 z "
         style="fill-rule:evenodd;stroke:#000000;stroke-width:1pt;stroke-opacity:1;fill:#e0edfa;fill-opacity:0"
         transform="scale(0.8) rotate(180) translate(12.5,0)" />
    </marker>
    <marker
       inkscape:isstock="true"
       style="overflow:visible;"
       id="marker16078"
       refX="0.0"
       refY="0.0"
       orient="auto"
       inkscape:stockid="Arrow2Lend">
      <path
         transform="scale(1.1) rotate(180) translate(1,0)"
         d="M 8.7185878,4.0337352 L -2.2072895,0.016013256 L 8.7185884,-4.0017078 C 6.9730900,-1.6296469 6.9831476,1.6157441 8.7185878,4.0337352 z "
         style="fill-rule:evenodd;stroke-width:0.625;stroke-linejoin:round;stroke:#000000;stroke-opacity:1;fill:#e0edfa;fill-opacity:0"
         id="path16080" />
    </marker>
    <marker
       inkscape:stockid="Arrow1Mend"
       orient="auto"
       refY="0.0"
       refX="0.0"
       id="marker15996"
       style="overflow:visible;"
       inkscape:isstock="true">
      <path
         id="path15998"
         d="M 0.0,0.0 L 5.0,-5.0 L -12.5,0.0 L 5.0,5.0 L 0.0,0.0 z "
         style="fill-rule:evenodd;stroke:#000000;stroke-width:1pt;stroke-opacity:1;fill:#e0edfa;fill-opacity:0"
         transform="scale(0.4) rotate(180) translate(10,0)" />
    </marker>
    <marker
       inkscape:isstock="true"
       style="overflow:visible;"
       id="marker14563"
       refX="0.0"
       refY="0.0"
       orient="auto"
       inkscape:stockid="Arrow1Mend"
       inkscape:collect="always">
      <path
         transform="scale(0.4) rotate(180) translate(10,0)"
         style="fill-rule:evenodd;stroke:#000000;stroke-width:1pt;stroke-opacity:1;fill:#e0edfa;fill-opacity:0"
         d="M 0.0,0.0 L 5.0,-5.0 L -12.5,0.0 L 5.0,5.0 L 0.0,0.0 z "
         id="path14565" />
    </marker>
    <marker
       inkscape:isstock="true"
       style="overflow:visible"
       id="marker14479"
       refX="0.0"
       refY="0.0"
       orient="auto"
       inkscape:stockid="Arrow1Mstart">
      <path
         transform="scale(0.4) translate(10,0)"
         style="fill-rule:evenodd;stroke:#000000;stroke-width:1pt;stroke-opacity:1;fill:#000000;fill-opacity:1"
         d="M 0.0,0.0 L 5.0,-5.0 L -12.5,0.0 L 5.0,5.0 L 0.0,0.0 z "
         id="path14481" />
    </marker>
    <marker
       inkscape:stockid="Arrow1Mstart"
       orient="auto"
       refY="0.0"
       refX="0.0"
       id="marker14383"
       style="overflow:visible"
       inkscape:isstock="true"
       inkscape:collect="always">
      <path
         id="path14385"
         d="M 0.0,0.0 L 5.0,-5.0 L -12.5,0.0 L 5.0,5.0 L 0.0,0.0 z "
         style="fill-rule:evenodd;stroke:#000000;stroke-width:1pt;stroke-opacity:1;fill:#000000;fill-opacity:1"
         transform="scale(0.4) translate(10,0)" />
    </marker>
    <marker
       inkscape:stockid="Arrow1Mend"
       orient="auto"
       refY="0.0"
       refX="0.0"
       id="marker12985"
       style="overflow:visible;"
       inkscape:isstock="true"
       inkscape:collect="always">
      <path
         id="path12987"
         d="M 0.0,0.0 L 5.0,-5.0 L -12.5,0.0 L 5.0,5.0 L 0.0,0.0 z "
         style="fill-rule:evenodd;stroke:#000000;stroke-width:1pt;stroke-opacity:1;fill:#e0edfa;fill-opacity:0"
         transform="scale(0.4) rotate(180) translate(10,0)" />
    </marker>
    <marker
       inkscape:isstock="true"
       style="overflow:visible;"
       id="marker12529"
       refX="0.0"
       refY="0.0"
       orient="auto"
       inkscape:stockid="Arrow1Mend"
       inkscape:collect="always">
      <path
         transform="scale(0.4) rotate(180) translate(10,0)"
         style="fill-rule:evenodd;stroke:#000000;stroke-width:1pt;stroke-opacity:1;fill:#000000;fill-opacity:1"
         d="M 0.0,0.0 L 5.0,-5.0 L -12.5,0.0 L 5.0,5.0 L 0.0,0.0 z "
         id="path12531" />
    </marker>
    <marker
       inkscape:stockid="Arrow1Mend"
       orient="auto"
       refY="0.0"
       refX="0.0"
       id="marker11803"
       style="overflow:visible;"
       inkscape:isstock="true"
       inkscape:collect="always">
      <path
         id="path11805"
         d="M 0.0,0.0 L 5.0,-5.0 L -12.5,0.0 L 5.0,5.0 L 0.0,0.0 z "
         style="fill-rule:evenodd;stroke:#000000;stroke-width:1pt;stroke-opacity:1;fill:#000000;fill-opacity:1"
         transform="scale(0.4) rotate(180) translate(10,0)" />
    </marker>
    <marker
       inkscape:isstock="true"
       style="overflow:visible;"
       id="marker11187"
       refX="0.0"
       refY="0.0"
       orient="auto"
       inkscape:stockid="Arrow1Mend">
      <path
         transform="scale(0.4) rotate(180) translate(10,0)"
         style="fill-rule:evenodd;stroke:#000000;stroke-width:1pt;stroke-opacity:1;fill:#000000;fill-opacity:1"
         d="M 0.0,0.0 L 5.0,-5.0 L -12.5,0.0 L 5.0,5.0 L 0.0,0.0 z "
         id="path11189" />
    </marker>
    <marker
       inkscape:isstock="true"
       style="overflow:visible;"
       id="marker8162"
       refX="0.0"
       refY="0.0"
       orient="auto"
       inkscape:stockid="Arrow1Mend">
      <path
         transform="scale(0.4) rotate(180) translate(10,0)"
         style="fill-rule:evenodd;stroke:#000000;stroke-width:1pt;stroke-opacity:1;fill:#000000;fill-opacity:1"
         d="M 0.0,0.0 L 5.0,-5.0 L -12.5,0.0 L 5.0,5.0 L 0.0,0.0 z "
         id="path8164" />
    </marker>
    <marker
       inkscape:isstock="true"
       style="overflow:visible"
       id="marker8152"
       refX="0.0"
       refY="0.0"
       orient="auto"
       inkscape:stockid="Arrow1Mstart"
       inkscape:collect="always">
      <path
         transform="scale(0.4) translate(10,0)"
         style="fill-rule:evenodd;stroke:#000000;stroke-width:1pt;stroke-opacity:1;fill:#000000;fill-opacity:1"
         d="M 0.0,0.0 L 5.0,-5.0 L -12.5,0.0 L 5.0,5.0 L 0.0,0.0 z "
         id="path8154" />
    </marker>
    <marker
       inkscape:collect="always"
       inkscape:stockid="Arrow1Mstart"
       orient="auto"
       refY="0.0"
       refX="0.0"
       id="Arrow1Mstart"
       style="overflow:visible"
       inkscape:isstock="true">
      <path
         id="path4256"
         d="M 0.0,0.0 L 5.0,-5.0 L -12.5,0.0 L 5.0,5.0 L 0.0,0.0 z "
         style="fill-rule:evenodd;stroke:#000000;stroke-width:1pt;stroke-opacity:1;fill:#000000;fill-opacity:1"
         transform="scale(0.4) translate(10,0)" />
    </marker>
    <marker
       inkscape:collect="always"
       inkscape:stockid="Arrow1Mend"
       orient="auto"
       refY="0.0"
       refX="0.0"
       id="marker7359"
       style="overflow:visible;"
       inkscape:isstock="true">
      <path
         id="path7361"
         d="M 0.0,0.0 L 5.0,-5.0 L -12.5,0.0 L 5.0,5.0 L 0.0,0.0 z "
         style="fill-rule:evenodd;stroke:#000000;stroke-width:1pt;stroke-opacity:1;fill:#000000;fill-opacity:1"
         transform="scale(0.4) rotate(180) translate(10,0)" />
    </marker>
    <marker
       inkscape:stockid="Arrow2Lend"
       orient="auto"
       refY="0.0"
       refX="0.0"
       id="Arrow2Lend"
       style="overflow:visible;"
       inkscape:isstock="true"
       inkscape:collect="always">
      <path
         id="path4271"
         style="fill-rule:evenodd;stroke-width:0.625;stroke-linejoin:round;stroke:#000000;stroke-opacity:1;fill:#000000;fill-opacity:1"
         d="M 8.7185878,4.0337352 L -2.2072895,0.016013256 L 8.7185884,-4.0017078 C 6.9730900,-1.6296469 6.9831476,1.6157441 8.7185878,4.0337352 z "
         transform="scale(1.1) rotate(180) translate(1,0)" />
    </marker>
    <marker
       style="overflow:visible"
       id="DistanceStart"
       refX="0.0"
       refY="0.0"
       orient="auto"
       inkscape:stockid="DistanceStart"
       inkscape:isstock="true">
      <g
         id="g2300"
         style="stroke:#000000;stroke-opacity:1;fill:#000000;fill-opacity:1">
        <path
           style="fill:#000000;stroke:#000000;stroke-width:1.15;stroke-linecap:square;stroke-opacity:1;fill-opacity:1"
           d="M 0,0 L 2,0"
           id="path2306" />
        <path
           style="fill:#000000;fill-rule:evenodd;stroke:#000000;stroke-opacity:1;fill-opacity:1"
           d="M 0,0 L 13,4 L 9,0 13,-4 L 0,0 z "
           id="path2302" />
        <path
           style="fill:#000000;stroke:#000000;stroke-width:1;stroke-linecap:square;stroke-opacity:1;fill-opacity:1"
           d="M 0,-4 L 0,40"
           id="path2304" />
      </g>
    </marker>
    <marker
       inkscape:stockid="Arrow1Lend"
       orient="auto"
       refY="0.0"
       refX="0.0"
       id="marker6415"
       style="overflow:visible;"
       inkscape:isstock="true">
      <path
         id="path6417"
         d="M 0.0,0.0 L 5.0,-5.0 L -12.5,0.0 L 5.0,5.0 L 0.0,0.0 z "
         style="fill-rule:evenodd;stroke:#000000;stroke-width:1pt;stroke-opacity:1;fill:#e0edfa;fill-opacity:0"
         transform="scale(0.8) rotate(180) translate(12.5,0)" />
    </marker>
    <marker
       inkscape:stockid="Arrow1Lend"
       orient="auto"
       refY="0.0"
       refX="0.0"
       id="marker6312"
       style="overflow:visible;"
       inkscape:isstock="true">
      <path
         id="path6314"
         d="M 0.0,0.0 L 5.0,-5.0 L -12.5,0.0 L 5.0,5.0 L 0.0,0.0 z "
         style="fill-rule:evenodd;stroke:#000000;stroke-width:1pt;stroke-opacity:1;fill:#000000;fill-opacity:1"
         transform="scale(0.8) rotate(180) translate(12.5,0)" />
    </marker>
    <marker
       inkscape:stockid="Arrow2Lstart"
       orient="auto"
       refY="0.0"
       refX="0.0"
       id="marker6053"
       style="overflow:visible"
       inkscape:isstock="true">
      <path
         id="path6055"
         style="fill-rule:evenodd;stroke-width:0.625;stroke-linejoin:round;stroke:#000000;stroke-opacity:1;fill:#000000;fill-opacity:1"
         d="M 8.7185878,4.0337352 L -2.2072895,0.016013256 L 8.7185884,-4.0017078 C 6.9730900,-1.6296469 6.9831476,1.6157441 8.7185878,4.0337352 z "
         transform="scale(1.1) translate(1,0)" />
    </marker>
    <marker
       inkscape:stockid="Arrow1Lstart"
       orient="auto"
       refY="0.0"
       refX="0.0"
       id="Arrow1Lstart"
       style="overflow:visible"
       inkscape:isstock="true">
      <path
         id="path4250"
         d="M 0.0,0.0 L 5.0,-5.0 L -12.5,0.0 L 5.0,5.0 L 0.0,0.0 z "
         style="fill-rule:evenodd;stroke:#000000;stroke-width:1pt;stroke-opacity:1;fill:#000000;fill-opacity:1"
         transform="scale(0.8) translate(12.5,0)" />
    </marker>
    <marker
       inkscape:isstock="true"
       style="overflow:visible;"
       id="marker4905"
       refX="0.0"
       refY="0.0"
       orient="auto"
       inkscape:stockid="Arrow1Mend"
       inkscape:collect="always">
      <path
         transform="scale(0.4) rotate(180) translate(10,0)"
         style="fill-rule:evenodd;stroke:#000000;stroke-width:1pt;stroke-opacity:1;fill:#000000;fill-opacity:1"
         d="M 0.0,0.0 L 5.0,-5.0 L -12.5,0.0 L 5.0,5.0 L 0.0,0.0 z "
         id="path4907" />
    </marker>
    <marker
       inkscape:stockid="Arrow1Mend"
       orient="auto"
       refY="0.0"
       refX="0.0"
       id="Arrow1Mend"
       style="overflow:visible;"
       inkscape:isstock="true"
       inkscape:collect="always">
      <path
         id="path4259"
         d="M 0.0,0.0 L 5.0,-5.0 L -12.5,0.0 L 5.0,5.0 L 0.0,0.0 z "
         style="fill-rule:evenodd;stroke:#000000;stroke-width:1pt;stroke-opacity:1;fill:#000000;fill-opacity:1"
         transform="scale(0.4) rotate(180) translate(10,0)" />
    </marker>
    <marker
       inkscape:stockid="Arrow2Lstart"
       orient="auto"
       refY="0.0"
       refX="0.0"
       id="Arrow2Lstart"
       style="overflow:visible"
       inkscape:isstock="true">
      <path
         id="path4268"
         style="fill-rule:evenodd;stroke-width:0.625;stroke-linejoin:round;stroke:#000000;stroke-opacity:1;fill:#000000;fill-opacity:1"
         d="M 8.7185878,4.0337352 L -2.2072895,0.016013256 L 8.7185884,-4.0017078 C 6.9730900,-1.6296469 6.9831476,1.6157441 8.7185878,4.0337352 z "
         transform="scale(1.1) translate(1,0)" />
    </marker>
    <marker
       inkscape:stockid="Arrow1Lend"
       orient="auto"
       refY="0.0"
       refX="0.0"
       id="Arrow1Lend"
       style="overflow:visible;"
       inkscape:isstock="true">
      <path
         id="path4253"
         d="M 0.0,0.0 L 5.0,-5.0 L -12.5,0.0 L 5.0,5.0 L 0.0,0.0 z "
         style="fill-rule:evenodd;stroke:#000000;stroke-width:1pt;stroke-opacity:1;fill:#e0edfa;fill-opacity:0"
         transform="scale(0.8) rotate(180) translate(12.5,0)" />
    </marker>
    <marker
       inkscape:stockid="Arrow1Send"
       orient="auto"
       refY="0.0"
       refX="0.0"
       id="Arrow1Send"
       style="overflow:visible;"
       inkscape:isstock="true">
      <path
         id="path4265"
         d="M 0.0,0.0 L 5.0,-5.0 L -12.5,0.0 L 5.0,5.0 L 0.0,0.0 z "
         style="fill-rule:evenodd;stroke:#000000;stroke-width:1pt;stroke-opacity:1;fill:#000000;fill-opacity:1"
         transform="scale(0.2) rotate(180) translate(6,0)" />
    </marker>
    <marker
       inkscape:stockid="Arrow2Send"
       orient="auto"
       refY="0.0"
       refX="0.0"
       id="Arrow2Send"
       style="overflow:visible;"
       inkscape:isstock="true">
      <path
         id="path4283"
         style="fill-rule:evenodd;stroke-width:0.625;stroke-linejoin:round;stroke:#000000;stroke-opacity:1;fill:#000000;fill-opacity:1"
         d="M 8.7185878,4.0337352 L -2.2072895,0.016013256 L 8.7185884,-4.0017078 C 6.9730900,-1.6296469 6.9831476,1.6157441 8.7185878,4.0337352 z "
         transform="scale(0.3) rotate(180) translate(-2.3,0)" />
    </marker>
    <marker
       inkscape:stockid="Torso"
       orient="auto"
       refY="0.0"
       refX="0.0"
       id="Torso"
       style="overflow:visible"
       inkscape:isstock="true">
      <g
         id="g4462"
         transform="scale(0.7)"
         style="stroke:#000000;stroke-opacity:1;fill:#000000;fill-opacity:1">
        <path
           id="path4464"
           d="M -4.7792281,-3.2395420 C -2.4288541,-2.8736027 0.52103922,-1.3019943 0.25792722,0.38794346 C -0.0051877922,2.0778819 -2.2126741,2.6176539 -4.5630471,2.2517169 C -6.9134221,1.8857769 -8.5210350,0.75201414 -8.2579220,-0.93792336 C -7.9948090,-2.6278615 -7.1296041,-3.6054813 -4.7792281,-3.2395420 z "
           style="fill:#000000;fill-opacity:1;fill-rule:evenodd;stroke:#000000;stroke-width:1.25;stroke-opacity:1" />
        <path
           id="path4466"
           d="M 4.4598789,0.088665736 C -2.5564571,-4.3783320 5.2248769,-3.9061806 -0.84829578,-8.7197331"
           style="fill:#000000;fill-opacity:1;fill-rule:evenodd;stroke:#000000;stroke-width:1pt;stroke-opacity:1" />
        <path
           id="path4468"
           d="M 4.9298719,0.057520736 C -1.3872731,1.7494689 1.8027579,5.4782079 -4.9448731,7.5462725"
           style="fill:#000000;fill-opacity:1;fill-rule:evenodd;stroke:#000000;stroke-width:1pt;stroke-opacity:1" />
        <rect
           id="rect4470"
           transform="matrix(0.527536,-0.849533,0.887668,0.460484,0,0)"
           y="-1.7408575"
           x="-10.391706"
           height="2.7608147"
           width="2.6366582"
           style="fill-rule:evenodd;stroke-width:1pt;stroke:#000000;stroke-opacity:1;fill:#000000;fill-opacity:1" />
        <rect
           id="rect4472"
           transform="matrix(0.671205,-0.741272,0.790802,0.612072,0,0)"
           y="-7.9629307"
           x="4.9587269"
           height="2.8614161"
           width="2.7327356"
           style="fill-rule:evenodd;stroke-width:1pt;stroke:#000000;stroke-opacity:1;fill:#000000;fill-opacity:1" />
        <path
           id="path4474"
           transform="matrix(0,-1.109517,1.109517,0,25.96648,19.71619)"
           d="M 16.779951 -28.685045 A 0.60731727 0.60731727 0 1 0 15.565317,-28.685045 A 0.60731727 0.60731727 0 1 0 16.779951 -28.685045 z"
           style="fill:#000000;fill-opacity:1;fill-rule:evenodd;stroke:#000000;stroke-width:1pt;stroke-opacity:1" />
        <path
           id="path4476"
           transform="matrix(0,-1.109517,1.109517,0,26.82450,16.99126)"
           d="M 16.779951 -28.685045 A 0.60731727 0.60731727 0 1 0 15.565317,-28.685045 A 0.60731727 0.60731727 0 1 0 16.779951 -28.685045 z"
           style="fill:#000000;fill-opacity:1;fill-rule:evenodd;stroke:#000000;stroke-width:1pt;stroke-opacity:1" />
      </g>
    </marker>
    <linearGradient
       inkscape:collect="always"
       id="linearGradient4175">
      <stop
         style="stop-color:#ffff79;stop-opacity:1;"
         offset="0"
         id="stop4177" />
      <stop
         style="stop-color:#ffffd4;stop-opacity:0"
         offset="1"
         id="stop4179" />
    </linearGradient>
    <linearGradient
       inkscape:collect="always"
       xlink:href="#linearGradient4175"
       id="linearGradient4181"
       x1="214.75104"
       y1="115.92803"
       x2="214.7171"
       y2="184.08307"
       gradientUnits="userSpaceOnUse"
       gradientTransform="matrix(0.7567504,0,0,1.5015376,11.614563,-67.163486)" />
    <linearGradient
       inkscape:collect="always"
       xlink:href="#linearGradient4175"
       id="linearGradient11169"
       gradientUnits="userSpaceOnUse"
       gradientTransform="matrix(0.25756906,0,0,1.2673199,332.40498,-12.93777)"
       x1="214.75104"
       y1="115.92803"
       x2="214.7171"
       y2="184.08307" />
    <linearGradient
       inkscape:collect="always"
       xlink:href="#linearGradient4175"
       id="linearGradient11177"
       gradientUnits="userSpaceOnUse"
       gradientTransform="matrix(0.43993186,0,0,1.0734629,403.08378,26.375961)"
       x1="216.67163"
       y1="102.04767"
       x2="214.7171"
       y2="184.08307" />
  </defs>
  <metadata
     id="metadata7">
    <rdf:RDF>
      <cc:Work
         rdf:about="">
        <dc:format>image/svg+xml</dc:format>
        <dc:type
           rdf:resource="http://purl.org/dc/dcmitype/StillImage" />
        <dc:title></dc:title>
      </cc:Work>
    </rdf:RDF>
  </metadata>
  <g
     inkscape:label="Layer 1"
     inkscape:groupmode="layer"
     id="layer1">
    <rect
       y="161.31178"
       x="434.08054"
       height="56.657879"
       width="142.65186"
       id="rect11175"
       style="opacity:1;fill:url(#linearGradient11177);fill-opacity:1;stroke:none;stroke-width:1;stroke-linejoin:bevel;stroke-miterlimit:4;stroke-dasharray:none;stroke-opacity:1" />
    <rect
       y="146.36612"
       x="350.55283"
       height="66.88974"
       width="83.519073"
       id="rect11167"
       style="opacity:1;fill:url(#linearGradient11169);fill-opacity:1;stroke:none;stroke-width:1;stroke-linejoin:bevel;stroke-miterlimit:4;stroke-dasharray:none;stroke-opacity:1" />
    <rect
       style="opacity:1;fill:url(#linearGradient4181);fill-opacity:1;stroke:none;stroke-width:1;stroke-linejoin:bevel;stroke-miterlimit:4;stroke-dasharray:none;stroke-opacity:1"
       id="rect4153"
       width="245.3831"
       height="79.251862"
       x="64.933784"
       y="121.58191" />
    <path
       style="fill:none;fill-rule:evenodd;stroke:#000000;stroke-width:1.13231063;stroke-linecap:butt;stroke-linejoin:miter;stroke-miterlimit:4;stroke-dasharray:none;stroke-opacity:1"
       d="m 310.31677,121.02207 -245.386512,0.0253"
       id="path4151"
       inkscape:connector-curvature="0" />
    <path
       style="fill:none;fill-rule:evenodd;stroke:#000000;stroke-width:0.82830453;stroke-linecap:butt;stroke-linejoin:miter;stroke-miterlimit:4;stroke-dasharray:2.48491353, 2.48491353;stroke-dashoffset:0;stroke-opacity:1;marker-end:url(#Arrow1Mend)"
       d="M 100.32979,200.34574 100.29318,92.081765"
       id="path4244"
       inkscape:connector-curvature="0" />
    <path
       style="fill:none;fill-rule:evenodd;stroke:#000000;stroke-width:0.47770762;stroke-linecap:butt;stroke-linejoin:miter;stroke-miterlimit:0.2;stroke-dasharray:none;stroke-opacity:1;marker-start:url(#Arrow1Mstart);marker-end:url(#marker7359)"
       d="m 277.01285,165.93049 0.0794,-43.25683"
       id="path5956"
       inkscape:connector-curvature="0" />
    <g
       style="font-style:normal;font-variant:normal;font-weight:normal;font-stretch:normal;letter-spacing:normal;word-spacing:normal;text-anchor:start;fill:none;fill-opacity:1;fill-rule:evenodd;stroke:#000000;stroke-linecap:butt;stroke-linejoin:miter;stroke-miterlimit:10.43299961;stroke-dasharray:none;stroke-dashoffset:0;stroke-opacity:1"
       id="content"
       transform="matrix(1.3,0,0,-1.3,30.480537,1108.4539)"
       xml:space="preserve"
       stroke-miterlimit="10.433"
       font-style="normal"
       font-variant="normal"
       font-weight="normal"
       font-stretch="normal"
       font-size-adjust="none"
       letter-spacing="normal"
       word-spacing="normal"
       ns0:text="$x$"
       ns0:preamble=""><path
         style="fill:#000000;stroke-width:0"
         inkscape:connector-curvature="0"
         d="m 226.76,710.12 0,0.03 0.01,0.03 0.01,0.03 0.01,0.04 0.01,0.04 0.01,0.04 0.01,0.04 0.02,0.05 0.01,0.04 0.02,0.05 0.02,0.05 0.02,0.05 0.02,0.05 0.03,0.05 0.02,0.05 0.03,0.05 0.03,0.05 0.03,0.04 0.03,0.05 0.04,0.04 0.04,0.05 0.04,0.04 0.04,0.04 0.04,0.03 0.05,0.03 0.05,0.03 0.02,0.01 0.03,0.02 0.02,0.01 0.03,0.01 0.03,0.01 0.03,0 0.03,0.01 0.02,0.01 0.04,0 0.03,0 0.03,0.01 0.03,0 c 0.05,0 0.29,0 0.5,-0.13 -0.28,-0.05 -0.48,-0.3 -0.48,-0.54 0,-0.16 0.11,-0.35 0.38,-0.35 0.22,0 0.54,0.18 0.54,0.58 0,0.52 -0.59,0.66 -0.93,0.66 -0.58,0 -0.93,-0.53 -1.04,-0.76 -0.25,0.66 -0.79,0.76 -1.08,0.76 -1.03,0 -1.6,-1.29 -1.6,-1.53 0,-0.1 0.1,-0.1 0.12,-0.1 0.08,0 0.11,0.02 0.13,0.11 0.34,1.05 0.99,1.3 1.33,1.3 0.19,0 0.54,-0.09 0.54,-0.67 0,-0.31 -0.17,-0.97 -0.54,-2.36 -0.16,-0.62 -0.51,-1.04 -0.94,-1.04 -0.06,0 -0.29,0 -0.5,0.13 0.25,0.05 0.47,0.26 0.47,0.54 0,0.27 -0.22,0.35 -0.37,0.35 -0.3,0 -0.55,-0.26 -0.55,-0.58 0,-0.46 0.5,-0.65 0.94,-0.65 0.65,0 1.01,0.69 1.04,0.75 0.12,-0.37 0.48,-0.75 1.07,-0.75 1.03,0 1.6,1.28 1.6,1.53 0,0.1 -0.09,0.1 -0.12,0.1 -0.09,0 -0.11,-0.05 -0.13,-0.11 -0.33,-1.07 -1.01,-1.31 -1.33,-1.31 -0.38,0 -0.54,0.32 -0.54,0.66 0,0.22 0.06,0.44 0.17,0.87 z"
         id="path7693" /></g>    <path
       style="opacity:0.54000005;fill:#84b3ff;fill-opacity:1;stroke:none;stroke-width:0.5;stroke-linejoin:bevel;stroke-miterlimit:4;stroke-dasharray:none;stroke-opacity:1"
       d="m 189.60341,185.59807 c -2.32807,-0.007 -10.20634,-0.0488 -17.50728,-0.0935 -7.30093,-0.0446 -20.06425,-0.0825 -28.36293,-0.0841 -10.71877,-0.002 -15.75564,-0.0256 -17.39209,-0.0816 -7.32228,-0.25017 -16.10118,-0.77221 -17.21534,-1.0237 -2.8115,-0.63463 -5.78604,-2.34829 -7.02018,-4.04437 -0.8008,-1.10053 -0.98699,-2.08752 -0.59397,-3.14861 0.20143,-0.54383 0.48531,-0.98563 0.96901,-1.50803 1.17983,-1.27423 2.56784,-2.06855 6.18044,-3.5369 1.43318,-0.58253 1.73828,-0.68322 2.74337,-0.90537 2.83078,-0.6257 6.4595,-1.17666 9.95516,-1.51154 2.27294,-0.21774 3.37072,-0.29985 6.91077,-0.51686 0.66384,-0.0407 8.91213,-0.085 21.88408,-0.11752 11.45027,-0.0287 23.86374,-0.0822 27.58547,-0.11881 3.72174,-0.0366 10.84847,-0.0966 15.83717,-0.13318 4.98871,-0.0366 9.82841,-0.0734 10.75488,-0.0818 l 1.6845,-0.0151 0,8.48195 0,8.48196 -6.09011,-0.0154 c -3.34956,-0.008 -7.99489,-0.0209 -10.32295,-0.0277 z"
       id="path4226"
       inkscape:connector-curvature="0" />
    <path
       style="opacity:0.54000005;fill:#84b3ff;fill-opacity:1;stroke:none;stroke-width:0.5;stroke-linejoin:bevel;stroke-miterlimit:4;stroke-dasharray:none;stroke-opacity:1"
       d="m 284.12322,185.97665 c -14.28187,-0.062 -35.82467,-0.15673 -47.87289,-0.21048 -12.0482,-0.0537 -23.77952,-0.0975 -26.06959,-0.0972 l -4.16375,5.8e-4 0,-8.47751 0,-8.47751 4.12272,-0.0563 c 2.26751,-0.0309 9.97455,-0.0966 17.12677,-0.14574 7.15221,-0.0492 17.61902,-0.12861 23.25958,-0.17648 5.64054,-0.0478 15.77507,-0.12874 22.52118,-0.1797 6.74608,-0.0509 16.97292,-0.13181 22.72627,-0.17966 5.75337,-0.0478 11.42535,-0.0871 12.60439,-0.0873 l 2.14374,-2.6e-4 0.0503,6.94687 c 0.0276,3.82078 0.0712,7.92188 0.0969,9.11357 l 0.0467,2.16671 -0.3126,-0.0135 c -0.17193,-0.007 -11.99776,-0.0642 -26.27963,-0.12622 z"
       id="path4230"
       inkscape:connector-curvature="0" />
    <path
       inkscape:connector-curvature="0"
       id="path4903"
       d="m 64.99682,177.98967 263.9252,-0.0226"
       style="fill:none;fill-rule:evenodd;stroke:#000000;stroke-width:0.89312953;stroke-linecap:butt;stroke-linejoin:miter;stroke-miterlimit:4;stroke-dasharray:2.67938854, 2.67938854;stroke-dashoffset:0;stroke-opacity:1;marker-end:url(#marker4905)" />
    <g
       ns0:preamble=""
       ns0:text="$y$"
       word-spacing="normal"
       letter-spacing="normal"
       font-size-adjust="none"
       font-stretch="normal"
       font-weight="normal"
       font-variant="normal"
       font-style="normal"
       stroke-miterlimit="10.433"
       xml:space="preserve"
       transform="matrix(1.3,0,0,-1.3,-201.29237,1020.0477)"
       id="g7949"
       style="font-style:normal;font-variant:normal;font-weight:normal;font-stretch:normal;letter-spacing:normal;word-spacing:normal;text-anchor:start;fill:none;fill-opacity:1;fill-rule:evenodd;stroke:#000000;stroke-linecap:butt;stroke-linejoin:miter;stroke-miterlimit:10.43299961;stroke-dasharray:none;stroke-dashoffset:0;stroke-opacity:1"><path
         id="path7951"
         d="m 228.27,710.91 0,0.01 0,0 0,0.01 0,0 0.01,0.02 0,0.01 0,0.01 0.01,0.01 0,0.01 0,0 0,0.01 0,0.01 0.01,0.01 0,0.01 0,0 0,0.01 0,0 0,0.01 0,0.01 0,0 0,0.01 0,0 0.01,0.01 0,0.01 0,0.01 0,0.01 0,0.01 0,0.01 0,0 0,0.01 c 0,0.18 -0.14,0.27 -0.29,0.27 -0.1,0 -0.26,-0.06 -0.35,-0.21 -0.02,-0.05 -0.1,-0.36 -0.14,-0.54 -0.07,-0.26 -0.14,-0.52 -0.2,-0.79 l -0.45,-1.79 c -0.03,-0.15 -0.46,-0.85 -1.12,-0.85 -0.51,0 -0.62,0.44 -0.62,0.81 0,0.46 0.17,1.07 0.51,1.95 0.16,0.4 0.2,0.51 0.2,0.71 0,0.45 -0.32,0.82 -0.82,0.82 -0.94,0 -1.31,-1.44 -1.31,-1.53 0,-0.1 0.1,-0.1 0.12,-0.1 0.1,0 0.11,0.02 0.16,0.18 0.27,0.93 0.67,1.23 1,1.23 0.08,0 0.25,0 0.25,-0.32 0,-0.25 -0.1,-0.51 -0.17,-0.7 -0.39,-1.05 -0.57,-1.62 -0.57,-2.08 0,-0.89 0.62,-1.18 1.21,-1.18 0.39,0 0.73,0.16 1.01,0.44 -0.13,-0.51 -0.25,-1 -0.65,-1.53 -0.26,-0.34 -0.64,-0.62 -1.1,-0.62 -0.13,0 -0.58,0.03 -0.75,0.41 0.16,0 0.29,0 0.43,0.12 0.1,0.09 0.19,0.22 0.19,0.41 0,0.31 -0.26,0.35 -0.36,0.35 -0.23,0 -0.56,-0.16 -0.56,-0.65 0,-0.49 0.44,-0.86 1.05,-0.86 1.03,0 2.05,0.9 2.33,2.02 z"
         inkscape:connector-curvature="0"
         style="fill:#000000;stroke-width:0" /></g>    <g
       style="font-style:normal;font-variant:normal;font-weight:normal;font-stretch:normal;letter-spacing:normal;word-spacing:normal;text-anchor:start;fill:none;fill-opacity:1;fill-rule:evenodd;stroke:#000000;stroke-linecap:butt;stroke-linejoin:miter;stroke-miterlimit:10.43299961;stroke-dasharray:none;stroke-dashoffset:0;stroke-opacity:1"
       id="g8073"
       transform="matrix(1,0,0,-1,57.386864,855.00536)"
       xml:space="preserve"
       stroke-miterlimit="10.433"
       font-style="normal"
       font-variant="normal"
       font-weight="normal"
       font-stretch="normal"
       font-size-adjust="none"
       letter-spacing="normal"
       word-spacing="normal"
       ns0:text="$l$"
       ns0:preamble=""><path
         style="fill:#000000;stroke-width:0"
         inkscape:connector-curvature="0"
         d="m 226,713.91 0,0 0,0 0,0 0,0 0,0.01 0,0 0,0 0,0.01 0,0 0,0.01 0,0 -0.01,0 0,0.01 0,0 0,0.01 0,0 -0.01,0.01 0,0 0,0.01 -0.01,0 0,0.01 0,0 -0.01,0 0,0 0,0.01 -0.01,0 0,0 0,0 -0.01,0 0,0.01 0,0 -0.01,0 0,0 0,0 -0.01,0 0,0 -0.01,0 0,0.01 -0.01,0 0,0 -0.01,0 0,0 -0.01,0 0,0 -0.01,0 c -0.23,0 -0.96,-0.08 -1.21,-0.1 -0.08,-0.01 -0.19,-0.02 -0.19,-0.21 0,-0.11 0.1,-0.11 0.24,-0.11 0.48,0 0.49,-0.09 0.49,-0.17 l -0.03,-0.2 -1.25,-4.96 c -0.03,-0.11 -0.05,-0.18 -0.05,-0.34 0,-0.57 0.44,-0.91 0.9,-0.91 0.33,0 0.58,0.19 0.75,0.55 0.18,0.38 0.3,0.96 0.3,0.98 0,0.1 -0.09,0.1 -0.12,0.1 -0.1,0 -0.11,-0.05 -0.14,-0.18 -0.17,-0.65 -0.36,-1.24 -0.76,-1.24 -0.29,0 -0.29,0.32 -0.29,0.46 0,0.24 0.01,0.29 0.06,0.48 z"
         id="path8075" /></g>    <path
       inkscape:connector-curvature="0"
       id="path8150"
       d="m 186.1767,184.59221 0.16328,-14.64178"
       style="fill:none;fill-rule:evenodd;stroke:#000000;stroke-width:0.39864674;stroke-linecap:butt;stroke-linejoin:miter;stroke-miterlimit:0.2;stroke-dasharray:none;stroke-opacity:1;marker-start:url(#marker8152);marker-end:url(#marker8162)" />
    <path
       sodipodi:nodetypes="cccccccc"
       inkscape:connector-curvature="0"
       id="path4205"
       d="m 310.43088,167.31739 -139.44209,1.10365 c -12.69792,0.10657 -25.39582,0.1516 -38.09341,0.0439 -8.38769,0.1848 -16.40237,0.92446 -22.75622,2.45205 -3.17967,1.35894 -9.16155,3.09933 -9.33703,7.29992 0.12548,3.73362 6.2334,6.48815 9.19117,6.78086 7.93959,0.55992 13.58364,0.86592 21.53558,0.95929 7.73085,0.0523 15.3859,-0.0221 23.22922,-0.0451 5.31616,0.12214 10.74782,0.0757 16.11713,0.13735 l 139.88142,0.56741"
       style="fill:none;fill-rule:evenodd;stroke:#000000;stroke-width:1.2420398;stroke-linecap:butt;stroke-linejoin:miter;stroke-miterlimit:3.29999995;stroke-dasharray:none;stroke-opacity:1" />
    <g
       ns0:preamble=""
       ns0:text="$h(x)$"
       word-spacing="normal"
       letter-spacing="normal"
       font-size-adjust="none"
       font-stretch="normal"
       font-weight="normal"
       font-variant="normal"
       font-style="normal"
       stroke-miterlimit="10.433"
       xml:space="preserve"
       transform="matrix(1,0,0,-1,-39.811184,903.75736)"
       id="g9516"
       style="font-style:normal;font-variant:normal;font-weight:normal;font-stretch:normal;letter-spacing:normal;word-spacing:normal;text-anchor:start;fill:none;fill-opacity:1;fill-rule:evenodd;stroke:#000000;stroke-linecap:butt;stroke-linejoin:miter;stroke-miterlimit:10.43299961;stroke-dasharray:none;stroke-dashoffset:0;stroke-opacity:1"><path
         id="path9518"
         d="m 226.29,713.91 0,0 0,0 0,0 0,0 0,0.01 0,0 0,0 0,0.01 -0.01,0 0,0.01 0,0 0,0 0,0.01 0,0 0,0.01 -0.01,0 0,0.01 0,0 -0.01,0.01 0,0 0,0.01 -0.01,0 0,0 0,0 0,0.01 -0.01,0 0,0 0,0 -0.01,0 0,0.01 0,0 -0.01,0 0,0 -0.01,0 0,0 0,0 -0.01,0 0,0.01 -0.01,0 0,0 -0.01,0 0,0 -0.01,0 -0.01,0 0,0 c -0.23,0 -0.96,-0.08 -1.22,-0.1 -0.07,-0.01 -0.18,-0.02 -0.18,-0.2 0,-0.12 0.09,-0.12 0.23,-0.12 0.48,0 0.5,-0.07 0.5,-0.17 l -0.03,-0.2 -1.44,-5.72 c -0.04,-0.14 -0.04,-0.16 -0.04,-0.22 0,-0.22 0.2,-0.27 0.29,-0.27 0.16,0 0.32,0.12 0.37,0.25 l 0.18,0.76 0.22,0.89 c 0.06,0.22 0.12,0.44 0.17,0.67 0.02,0.06 0.1,0.39 0.11,0.45 0.03,0.08 0.34,0.64 0.68,0.91 0.22,0.16 0.53,0.35 0.95,0.35 0.43,0 0.54,-0.34 0.54,-0.7 0,-0.53 -0.38,-1.62 -0.62,-2.22 -0.08,-0.23 -0.13,-0.35 -0.13,-0.55 0,-0.47 0.35,-0.81 0.82,-0.81 0.94,0 1.3,1.45 1.3,1.53 0,0.1 -0.09,0.1 -0.12,0.1 -0.09,0 -0.09,-0.04 -0.14,-0.18 -0.15,-0.53 -0.47,-1.24 -1.02,-1.24 -0.17,0 -0.24,0.1 -0.24,0.33 0,0.25 0.09,0.49 0.18,0.71 0.16,0.42 0.61,1.61 0.61,2.18 0,0.65 -0.4,1.07 -1.15,1.07 -0.62,0 -1.1,-0.31 -1.47,-0.77 z"
         inkscape:connector-curvature="0"
         style="fill:#000000;stroke-width:0" /><path
         id="path9520"
         d="m 232.46,704.74 0,0.01 0,0 0,0 0,0.01 0,0 0,0 0,0.01 0,0 0,0 0,0.01 -0.01,0 0,0.01 0,0 -0.01,0.01 0,0 -0.01,0.01 0,0.01 -0.01,0 0,0.01 0,0 -0.01,0.01 0,0 0,0 -0.01,0.01 0,0 -0.01,0.01 0,0 -0.01,0.01 0,0 -0.01,0.01 0,0 -0.01,0.01 0,0.01 -0.01,0 0,0.01 -0.01,0.01 -0.01,0 0,0.01 -0.01,0.01 -0.01,0 -0.01,0.01 0,0.01 c -1.25,1.25 -1.57,3.13 -1.57,4.65 0,1.73 0.38,3.46 1.61,4.7 0.12,0.12 0.12,0.14 0.12,0.17 0,0.07 -0.03,0.1 -0.09,0.1 -0.1,0 -1,-0.68 -1.59,-1.94 -0.5,-1.09 -0.62,-2.2 -0.62,-3.03 0,-0.78 0.11,-1.98 0.65,-3.1 0.6,-1.22 1.46,-1.87 1.56,-1.87 0.06,0 0.09,0.03 0.09,0.1 z"
         inkscape:connector-curvature="0"
         style="fill:#000000;stroke-width:0" /><path
         id="path9522"
         d="m 236.37,710.12 0.01,0.03 0,0.03 0.01,0.03 0.01,0.04 0.01,0.04 0.01,0.04 0.02,0.04 0.01,0.05 0.02,0.04 0.01,0.05 0.02,0.05 0.02,0.05 0.03,0.05 0.02,0.05 0.03,0.05 0.02,0.05 0.03,0.05 0.03,0.04 0.04,0.05 0.03,0.04 0.04,0.05 0.04,0.04 0.04,0.04 0.05,0.03 0.04,0.03 0.05,0.03 0.03,0.01 0.02,0.02 0.03,0.01 0.03,0.01 0.02,0.01 0.03,0 0.03,0.01 0.03,0.01 0.03,0 0.03,0 0.03,0.01 0.03,0 c 0.05,0 0.29,0 0.5,-0.13 -0.28,-0.05 -0.47,-0.3 -0.47,-0.54 0,-0.16 0.1,-0.35 0.37,-0.35 0.22,0 0.54,0.18 0.54,0.58 0,0.52 -0.59,0.66 -0.92,0.66 -0.58,0 -0.93,-0.53 -1.05,-0.76 -0.25,0.66 -0.79,0.76 -1.07,0.76 -1.04,0 -1.61,-1.29 -1.61,-1.53 0,-0.1 0.1,-0.1 0.12,-0.1 0.08,0 0.11,0.02 0.13,0.11 0.34,1.05 1,1.3 1.34,1.3 0.18,0 0.53,-0.09 0.53,-0.67 0,-0.31 -0.17,-0.97 -0.53,-2.36 -0.16,-0.62 -0.51,-1.04 -0.95,-1.04 -0.06,0 -0.29,0 -0.5,0.13 0.25,0.05 0.47,0.26 0.47,0.54 0,0.27 -0.22,0.35 -0.37,0.35 -0.3,0 -0.54,-0.26 -0.54,-0.58 0,-0.46 0.49,-0.65 0.93,-0.65 0.66,0 1.02,0.69 1.05,0.75 0.11,-0.37 0.47,-0.75 1.07,-0.75 1.02,0 1.59,1.28 1.59,1.53 0,0.1 -0.09,0.1 -0.12,0.1 -0.09,0 -0.11,-0.05 -0.13,-0.11 -0.33,-1.07 -1,-1.31 -1.32,-1.31 -0.39,0 -0.55,0.32 -0.55,0.66 0,0.22 0.06,0.44 0.17,0.87 z"
         inkscape:connector-curvature="0"
         style="fill:#000000;stroke-width:0" /><path
         id="path9524"
         d="m 241.62,709.61 -0.01,0.07 0,0.08 0,0.08 0,0.08 -0.01,0.17 -0.01,0.17 -0.02,0.18 -0.02,0.19 -0.03,0.2 -0.03,0.2 -0.04,0.2 -0.04,0.21 -0.06,0.21 -0.06,0.21 -0.07,0.21 -0.08,0.21 -0.04,0.11 -0.04,0.11 -0.05,0.1 -0.05,0.11 c -0.6,1.22 -1.45,1.87 -1.55,1.87 -0.06,0 -0.1,-0.04 -0.1,-0.1 0,-0.03 0,-0.05 0.19,-0.23 0.97,-0.99 1.54,-2.57 1.54,-4.64 0,-1.7 -0.37,-3.45 -1.6,-4.7 -0.13,-0.12 -0.13,-0.14 -0.13,-0.17 0,-0.06 0.04,-0.1 0.1,-0.1 0.1,0 0.99,0.68 1.58,1.94 0.51,1.09 0.63,2.19 0.63,3.03 z"
         inkscape:connector-curvature="0"
         style="fill:#000000;stroke-width:0" /></g>    <g
       id="g10173"
       transform="matrix(0.8093437,0,0,-0.8093437,408.64881,175.49478)">
      <g
         transform="translate(6.355,25.234)"
         id="g10175">
        <g
           id="g10177">
          <g
             transform="translate(-63.446,-62.084)"
             id="g10179">
            <text
               id="text10181"
               style="font-variant:normal;font-weight:normal;font-size:8.96640015px;font-family:CMMI9;-inkscape-font-specification:CMMI9;writing-mode:lr-tb;fill:#000000;fill-opacity:1;fill-rule:nonzero;stroke:none"
               transform="matrix(1,0,0,-1,63.446,62.084)">
              <tspan
                 id="tspan10183"
                 y="0"
                 x="0" />
            </text>
            <g
               transform="translate(63.446,62.084)"
               id="g10185" />
          </g>
        </g>
        <g
           transform="translate(-6.355,-25.234)"
           id="g10187" />
      </g>
    </g>
    <path
       style="fill:none;fill-rule:evenodd;stroke:#000000;stroke-width:0.98056746;stroke-linecap:butt;stroke-linejoin:miter;stroke-miterlimit:4;stroke-dasharray:none;stroke-opacity:1"
       d="m 428.14142,161.12727 c 4.94549,-0.11424 9.97204,-0.54143 14.94474,-1.24829 8.41445,-0.88681 16.65142,-2.64436 24.85507,-4.09465 9.65962,-2.38178 19.42847,-4.63679 28.73906,-7.75254 9.21175,-2.20593 17.78743,-5.62431 26.71914,-8.3927 9.92318,-3.59613 19.51665,-7.67849 29.32063,-11.457 8.00672,-3.49691 16.09554,-6.88916 23.96083,-10.58105"
       id="path11136"
       inkscape:connector-curvature="0" />
    <path
       style="fill:none;fill-rule:evenodd;stroke:#000000;stroke-width:0.98056746;stroke-linecap:butt;stroke-linejoin:miter;stroke-miterlimit:4;stroke-dasharray:none;stroke-opacity:1"
       d="m 428.12695,161.75857 148.85698,-0.86671"
       id="path11149"
       inkscape:connector-curvature="0" />
    <path
       inkscape:connector-curvature="0"
       id="path11151"
       d="m 350.43107,146.24648 77.55948,0.002"
       style="fill:none;fill-rule:evenodd;stroke:#000000;stroke-width:0.98056746;stroke-linecap:butt;stroke-linejoin:miter;stroke-miterlimit:4;stroke-dasharray:none;stroke-opacity:1" />
    <path
       inkscape:connector-curvature="0"
       id="path11153"
       d="m 427.83946,146.25115 c 4.94009,-0.11816 9.96116,-0.56015 14.92845,-1.29145 8.40528,-0.91748 16.63327,-2.7358 24.82798,-4.23625 9.64909,-2.46413 19.40729,-4.79712 28.70773,-8.02061 9.2017,-2.28222 17.76805,-5.81881 26.69001,-8.68293 9.91238,-3.72049 19.49539,-7.94402 29.28868,-11.85319 7.99799,-3.61783 16.078,-7.12739 23.93472,-10.94694"
       style="fill:none;fill-rule:evenodd;stroke:#000000;stroke-width:0.98056746;stroke-linecap:butt;stroke-linejoin:miter;stroke-miterlimit:4;stroke-dasharray:none;stroke-opacity:1" />
    <path
       style="opacity:0.54000005;fill:#ffff48;fill-opacity:1;stroke:none;stroke-width:0.80000001;stroke-linejoin:bevel;stroke-miterlimit:4;stroke-dasharray:none;stroke-dashoffset:0;stroke-opacity:1"
       d="m 434.06417,153.38332 0,-6.89315 0.17236,-0.0354 c 0.0947,-0.0195 0.82735,-0.0912 1.6279,-0.15942 1.61795,-0.13786 3.79686,-0.38473 6.39667,-0.72474 0.94802,-0.12399 2.41312,-0.31418 3.25579,-0.42265 3.76136,-0.48414 7.24711,-1.08016 15.93422,-2.72453 5.37223,-1.0169 6.44772,-1.24516 9.57586,-2.03241 11.55478,-2.90796 17.39727,-4.5308 23.28847,-6.46872 1.26402,-0.4158 2.59123,-0.82936 2.94937,-0.91904 3.65272,-0.91458 8.29387,-2.39518 16.08743,-5.13214 2.42269,-0.8508 5.71487,-1.98767 7.31595,-2.52636 4.55506,-1.53256 8.53793,-3.10336 21.90956,-8.6408 2.44376,-1.01201 5.64975,-2.32889 7.12443,-2.9264 3.48974,-1.41399 17.72813,-7.79368 23.17357,-10.38322 0.94801,-0.45082 2.04003,-0.96871 2.42671,-1.15087 l 0.70306,-0.33121 0.0412,0.47371 c 0.0227,0.26054 0.11141,3.47286 0.19739,7.1385 0.0859,3.66564 0.169,6.87564 0.18459,7.13335 l 0.0283,0.46856 -2.03958,0.93969 c -5.47115,2.5207 -20.97447,9.27219 -23.83423,10.37949 -0.94802,0.36706 -5.42952,2.14253 -9.95889,3.94546 -14.72428,5.86104 -14.05106,5.61254 -25.89311,9.55794 -10.26648,3.42046 -12.60433,4.14876 -16.66199,5.19072 -0.92694,0.23802 -2.20245,0.59973 -2.83445,0.80382 -6.23374,2.01287 -11.22855,3.36339 -23.90133,6.46257 -1.98029,0.48429 -4.0142,0.9543 -4.5198,1.04449 -0.50561,0.0902 -3.3324,0.60766 -6.28176,1.14995 -8.18728,1.50538 -11.62283,2.05609 -16.47047,2.64014 -1.22189,0.14721 -2.60081,0.31797 -3.06428,0.37945 -2.01941,0.26793 -5.89226,0.65453 -6.56904,0.65575 l -0.36387,6.5e-4 0,-6.89316 z"
       id="path11165"
       inkscape:connector-curvature="0" />
    <path
       style="fill:none;fill-rule:evenodd;stroke:#000000;stroke-width:0.80000001;stroke-linecap:butt;stroke-linejoin:miter;stroke-miterlimit:4;stroke-dasharray:2.4, 2.4;stroke-dashoffset:0;stroke-opacity:1;marker-end:url(#marker11803)"
       d="m 370.98123,190.804 29.63706,-0.0567"
       id="path11801"
       inkscape:connector-curvature="0" />
    <path
       inkscape:connector-curvature="0"
       id="path12527"
       d="m 371.19623,191.03886 -0.0568,-29.63706"
       style="fill:none;fill-rule:evenodd;stroke:#000000;stroke-width:0.80000001;stroke-linecap:butt;stroke-linejoin:miter;stroke-miterlimit:4;stroke-dasharray:2.4, 2.4;stroke-dashoffset:0;stroke-opacity:1;marker-end:url(#marker12529)" />
    <g
       ns0:preamble=""
       ns0:text="$x$"
       word-spacing="normal"
       letter-spacing="normal"
       font-size-adjust="none"
       font-stretch="normal"
       font-weight="normal"
       font-variant="normal"
       font-style="normal"
       stroke-miterlimit="10.433"
       xml:space="preserve"
       transform="matrix(1.3,0,0,-1.3,108.02321,1120.6965)"
       id="g12955"
       style="font-style:normal;font-variant:normal;font-weight:normal;font-stretch:normal;letter-spacing:normal;word-spacing:normal;text-anchor:start;fill:none;fill-opacity:1;fill-rule:evenodd;stroke:#000000;stroke-linecap:butt;stroke-linejoin:miter;stroke-miterlimit:10.43299961;stroke-dasharray:none;stroke-dashoffset:0;stroke-opacity:1"><path
         id="path12957"
         d="m 226.76,710.12 0,0.03 0.01,0.03 0.01,0.03 0.01,0.04 0.01,0.04 0.01,0.04 0.01,0.04 0.02,0.05 0.01,0.04 0.02,0.05 0.02,0.05 0.02,0.05 0.02,0.05 0.03,0.05 0.02,0.05 0.03,0.05 0.03,0.05 0.03,0.04 0.03,0.05 0.04,0.04 0.04,0.05 0.04,0.04 0.04,0.04 0.04,0.03 0.05,0.03 0.05,0.03 0.02,0.01 0.03,0.02 0.02,0.01 0.03,0.01 0.03,0.01 0.03,0 0.03,0.01 0.02,0.01 0.04,0 0.03,0 0.03,0.01 0.03,0 c 0.05,0 0.29,0 0.5,-0.13 -0.28,-0.05 -0.48,-0.3 -0.48,-0.54 0,-0.16 0.11,-0.35 0.38,-0.35 0.22,0 0.54,0.18 0.54,0.58 0,0.52 -0.59,0.66 -0.93,0.66 -0.58,0 -0.93,-0.53 -1.04,-0.76 -0.25,0.66 -0.79,0.76 -1.08,0.76 -1.03,0 -1.6,-1.29 -1.6,-1.53 0,-0.1 0.1,-0.1 0.12,-0.1 0.08,0 0.11,0.02 0.13,0.11 0.34,1.05 0.99,1.3 1.33,1.3 0.19,0 0.54,-0.09 0.54,-0.67 0,-0.31 -0.17,-0.97 -0.54,-2.36 -0.16,-0.62 -0.51,-1.04 -0.94,-1.04 -0.06,0 -0.29,0 -0.5,0.13 0.25,0.05 0.47,0.26 0.47,0.54 0,0.27 -0.22,0.35 -0.37,0.35 -0.3,0 -0.55,-0.26 -0.55,-0.58 0,-0.46 0.5,-0.65 0.94,-0.65 0.65,0 1.01,0.69 1.04,0.75 0.12,-0.37 0.48,-0.75 1.07,-0.75 1.03,0 1.6,1.28 1.6,1.53 0,0.1 -0.09,0.1 -0.12,0.1 -0.09,0 -0.11,-0.05 -0.13,-0.11 -0.33,-1.07 -1.01,-1.31 -1.33,-1.31 -0.38,0 -0.54,0.32 -0.54,0.66 0,0.22 0.06,0.44 0.17,0.87 z"
         inkscape:connector-curvature="0"
         style="fill:#000000;stroke-width:0" /></g>    <g
       style="font-style:normal;font-variant:normal;font-weight:normal;font-stretch:normal;letter-spacing:normal;word-spacing:normal;text-anchor:start;fill:none;fill-opacity:1;fill-rule:evenodd;stroke:#000000;stroke-linecap:butt;stroke-linejoin:miter;stroke-miterlimit:10.43299961;stroke-dasharray:none;stroke-dashoffset:0;stroke-opacity:1"
       id="g12959"
       transform="matrix(1.3,0,0,-1.3,70.25061,1081.6015)"
       xml:space="preserve"
       stroke-miterlimit="10.433"
       font-style="normal"
       font-variant="normal"
       font-weight="normal"
       font-stretch="normal"
       font-size-adjust="none"
       letter-spacing="normal"
       word-spacing="normal"
       ns0:text="$y$"
       ns0:preamble=""><path
         style="fill:#000000;stroke-width:0"
         inkscape:connector-curvature="0"
         d="m 228.27,710.91 0,0.01 0,0 0,0.01 0,0 0.01,0.02 0,0.01 0,0.01 0.01,0.01 0,0.01 0,0 0,0.01 0,0.01 0.01,0.01 0,0.01 0,0 0,0.01 0,0 0,0.01 0,0.01 0,0 0,0.01 0,0 0.01,0.01 0,0.01 0,0.01 0,0.01 0,0.01 0,0.01 0,0 0,0.01 c 0,0.18 -0.14,0.27 -0.29,0.27 -0.1,0 -0.26,-0.06 -0.35,-0.21 -0.02,-0.05 -0.1,-0.36 -0.14,-0.54 -0.07,-0.26 -0.14,-0.52 -0.2,-0.79 l -0.45,-1.79 c -0.03,-0.15 -0.46,-0.85 -1.12,-0.85 -0.51,0 -0.62,0.44 -0.62,0.81 0,0.46 0.17,1.07 0.51,1.95 0.16,0.4 0.2,0.51 0.2,0.71 0,0.45 -0.32,0.82 -0.82,0.82 -0.94,0 -1.31,-1.44 -1.31,-1.53 0,-0.1 0.1,-0.1 0.12,-0.1 0.1,0 0.11,0.02 0.16,0.18 0.27,0.93 0.67,1.23 1,1.23 0.08,0 0.25,0 0.25,-0.32 0,-0.25 -0.1,-0.51 -0.17,-0.7 -0.39,-1.05 -0.57,-1.62 -0.57,-2.08 0,-0.89 0.62,-1.18 1.21,-1.18 0.39,0 0.73,0.16 1.01,0.44 -0.13,-0.51 -0.25,-1 -0.65,-1.53 -0.26,-0.34 -0.64,-0.62 -1.1,-0.62 -0.13,0 -0.58,0.03 -0.75,0.41 0.16,0 0.29,0 0.43,0.12 0.1,0.09 0.19,0.22 0.19,0.41 0,0.31 -0.26,0.35 -0.36,0.35 -0.23,0 -0.56,-0.16 -0.56,-0.65 0,-0.49 0.44,-0.86 1.05,-0.86 1.03,0 2.05,0.9 2.33,2.02 z"
         id="path12961" /></g>    <path
       style="opacity:0.54000005;fill:#a0c5ee;fill-opacity:1;stroke:none;stroke-width:0.80000001;stroke-linejoin:bevel;stroke-miterlimit:4;stroke-dasharray:none;stroke-dashoffset:0;stroke-opacity:1"
       d="m 442.29396,160.60178 c 11.44603,-1.42819 24.13032,-3.78782 34.77664,-6.46939 7.66642,-1.93101 14.11036,-3.70771 18.52587,-5.10789 1.07256,-0.34011 3.46141,-1.02447 5.30858,-1.52078 3.71315,-0.99771 22.42171,-7.18241 27.19295,-8.98949 13.63101,-5.16266 33.06179,-13.18852 43.86984,-18.12037 2.3199,-1.0586 4.29436,-1.92472 4.38771,-1.92472 0.0934,0 0.16972,9.39739 0.16972,20.88308 l 0,20.8831 -16.95496,0.13774 c -9.32524,0.0757 -35.96836,0.23193 -59.20695,0.34703 -23.23859,0.11509 -46.73719,0.25113 -52.21912,0.30231 l -9.96713,0.093 4.11685,-0.51368 z"
       id="path12967"
       inkscape:connector-curvature="0" />
    <path
       style="fill:none;stroke:#000000;stroke-width:0.5;stroke-linecap:butt;stroke-linejoin:miter;stroke-miterlimit:10;stroke-dasharray:none;stroke-opacity:1;marker-end:url(#Arrow2Lend)"
       d="m 537.54749,87.612901 c 10.74531,6.184863 19.11689,16.309059 23.32874,27.955899 -1.27251,-2.50332 -1.93381,-5.30193 -3.54019,-7.63658 -3.04265,-5.78151 -7.28485,-10.915525 -12.32879,-15.05902 -1.99369,-1.48847 -3.85358,-3.165827 -6.033,-4.391526 -0.43936,-0.276027 -0.87832,-0.552776 -1.31215,-0.837454"
       id="path12971"
       inkscape:connector-curvature="0" />
    <g
       style="font-style:normal;font-variant:normal;font-weight:normal;font-stretch:normal;letter-spacing:normal;word-spacing:normal;text-anchor:start;fill:none;fill-opacity:1;fill-rule:evenodd;stroke:#000000;stroke-linecap:butt;stroke-linejoin:miter;stroke-miterlimit:10.43299961;stroke-dasharray:none;stroke-dashoffset:0;stroke-opacity:1"
       id="g13550"
       transform="matrix(1,0,0,-1,303,804)"
       xml:space="preserve"
       stroke-miterlimit="10.433"
       font-style="normal"
       font-variant="normal"
       font-weight="normal"
       font-stretch="normal"
       font-size-adjust="none"
       letter-spacing="normal"
       word-spacing="normal"
       ns0:text="$M$"
       ns0:preamble=""><path
         style="fill:#000000;stroke-width:0"
         inkscape:connector-curvature="0"
         d="m 232.65,713.15 0,0.03 0.01,0.03 0.01,0.03 0.01,0.03 0,0.02 0.01,0.03 0.01,0.02 0.01,0.03 0.01,0.02 0.01,0.02 0.01,0.02 0.02,0.02 0.01,0.01 0.02,0.02 0.02,0.01 0.02,0.02 0.02,0.01 0.02,0.01 0.03,0.01 0.03,0.01 0.03,0.01 0.01,0 0.02,0.01 0.02,0 0.02,0 0.01,0.01 0.02,0 0.03,0 0.02,0.01 0.02,0 0.02,0 0.03,0 0.02,0 0.03,0.01 0.02,0 0.03,0 0.03,0 0.03,0 0.03,0 0.03,0 0.03,0 0.04,0 0.03,0 c 0.23,0 0.32,0 0.32,0.2 0,0.11 -0.1,0.11 -0.27,0.11 l -1.31,0 c -0.26,0 -0.27,0 -0.39,-0.19 l -3.63,-5.66 -0.78,5.62 c -0.03,0.23 -0.05,0.23 -0.31,0.23 l -1.36,0 c -0.19,0 -0.3,0 -0.3,-0.19 0,-0.12 0.09,-0.12 0.29,-0.12 0.13,0 0.31,-0.01 0.43,-0.02 0.16,-0.02 0.22,-0.05 0.22,-0.16 0,-0.04 -0.01,-0.07 -0.04,-0.19 l -1.27,-5.05 c -0.1,-0.4 -0.26,-0.72 -1.07,-0.75 -0.05,0 -0.18,-0.01 -0.18,-0.19 0,-0.08 0.06,-0.12 0.14,-0.12 0.32,0 0.67,0.04 0.99,0.04 0.34,0 0.7,-0.04 1.03,-0.04 0.05,0 0.18,0 0.18,0.2 0,0.11 -0.11,0.11 -0.18,0.11 -0.57,0.01 -0.68,0.21 -0.68,0.44 0,0.07 0.01,0.12 0.04,0.23 l 1.36,5.41 0.01,0 0.85,-6.16 c 0.02,-0.12 0.03,-0.23 0.15,-0.23 0.11,0 0.17,0.11 0.22,0.18 l 4.02,6.29 0.01,0 -1.42,-5.69 c -0.1,-0.39 -0.12,-0.47 -0.91,-0.47 -0.17,0 -0.28,0 -0.28,-0.19 0,-0.12 0.12,-0.12 0.15,-0.12 0.28,0 0.96,0.04 1.23,0.04 0.41,0 0.84,-0.04 1.25,-0.04 0.06,0 0.19,0 0.19,0.2 0,0.11 -0.09,0.11 -0.28,0.11 -0.37,0 -0.65,0 -0.65,0.18 0,0.04 0,0.06 0.05,0.24 z"
         id="path13552" /></g>    <g
       style="font-style:normal;font-variant:normal;font-weight:normal;font-stretch:normal;letter-spacing:normal;word-spacing:normal;text-anchor:start;fill:none;fill-opacity:1;fill-rule:evenodd;stroke:#000000;stroke-linecap:butt;stroke-linejoin:miter;stroke-miterlimit:10.43299961;stroke-dasharray:none;stroke-dashoffset:0;stroke-opacity:1"
       id="g13803"
       transform="matrix(1,0,0,-1,333.08373,857.12716)"
       xml:space="preserve"
       stroke-miterlimit="10.433"
       font-style="normal"
       font-variant="normal"
       font-weight="normal"
       font-stretch="normal"
       font-size-adjust="none"
       letter-spacing="normal"
       word-spacing="normal"
       ns0:text="$h(x)$"
       ns0:preamble=""><path
         style="fill:#000000;stroke-width:0"
         inkscape:connector-curvature="0"
         d="m 226.29,713.91 0,0 0,0 0,0 0,0 0,0.01 0,0 0,0 0,0.01 -0.01,0 0,0.01 0,0 0,0 0,0.01 0,0 0,0.01 -0.01,0 0,0.01 0,0 -0.01,0.01 0,0 0,0.01 -0.01,0 0,0 0,0 0,0.01 -0.01,0 0,0 0,0 -0.01,0 0,0.01 0,0 -0.01,0 0,0 -0.01,0 0,0 0,0 -0.01,0 0,0.01 -0.01,0 0,0 -0.01,0 0,0 -0.01,0 -0.01,0 0,0 c -0.23,0 -0.96,-0.08 -1.22,-0.1 -0.07,-0.01 -0.18,-0.02 -0.18,-0.2 0,-0.12 0.09,-0.12 0.23,-0.12 0.48,0 0.5,-0.07 0.5,-0.17 l -0.03,-0.2 -1.44,-5.72 c -0.04,-0.14 -0.04,-0.16 -0.04,-0.22 0,-0.22 0.2,-0.27 0.29,-0.27 0.16,0 0.32,0.12 0.37,0.25 l 0.18,0.76 0.22,0.89 c 0.06,0.22 0.12,0.44 0.17,0.67 0.02,0.06 0.1,0.39 0.11,0.45 0.03,0.08 0.34,0.64 0.68,0.91 0.22,0.16 0.53,0.35 0.95,0.35 0.43,0 0.54,-0.34 0.54,-0.7 0,-0.53 -0.38,-1.62 -0.62,-2.22 -0.08,-0.23 -0.13,-0.35 -0.13,-0.55 0,-0.47 0.35,-0.81 0.82,-0.81 0.94,0 1.3,1.45 1.3,1.53 0,0.1 -0.09,0.1 -0.12,0.1 -0.09,0 -0.09,-0.04 -0.14,-0.18 -0.15,-0.53 -0.47,-1.24 -1.02,-1.24 -0.17,0 -0.24,0.1 -0.24,0.33 0,0.25 0.09,0.49 0.18,0.71 0.16,0.42 0.61,1.61 0.61,2.18 0,0.65 -0.4,1.07 -1.15,1.07 -0.62,0 -1.1,-0.31 -1.47,-0.77 z"
         id="path13805" /><path
         style="fill:#000000;stroke-width:0"
         inkscape:connector-curvature="0"
         d="m 232.46,704.74 0,0.01 0,0 0,0 0,0.01 0,0 0,0 0,0.01 0,0 0,0 0,0.01 -0.01,0 0,0.01 0,0 -0.01,0.01 0,0 -0.01,0.01 0,0.01 -0.01,0 0,0.01 0,0 -0.01,0.01 0,0 0,0 -0.01,0.01 0,0 -0.01,0.01 0,0 -0.01,0.01 0,0 -0.01,0.01 0,0 -0.01,0.01 0,0.01 -0.01,0 0,0.01 -0.01,0.01 -0.01,0 0,0.01 -0.01,0.01 -0.01,0 -0.01,0.01 0,0.01 c -1.25,1.25 -1.57,3.13 -1.57,4.65 0,1.73 0.38,3.46 1.61,4.7 0.12,0.12 0.12,0.14 0.12,0.17 0,0.07 -0.03,0.1 -0.09,0.1 -0.1,0 -1,-0.68 -1.59,-1.94 -0.5,-1.09 -0.62,-2.2 -0.62,-3.03 0,-0.78 0.11,-1.98 0.65,-3.1 0.6,-1.22 1.46,-1.87 1.56,-1.87 0.06,0 0.09,0.03 0.09,0.1 z"
         id="path13807" /><path
         style="fill:#000000;stroke-width:0"
         inkscape:connector-curvature="0"
         d="m 236.37,710.12 0.01,0.03 0,0.03 0.01,0.03 0.01,0.04 0.01,0.04 0.01,0.04 0.02,0.04 0.01,0.05 0.02,0.04 0.01,0.05 0.02,0.05 0.02,0.05 0.03,0.05 0.02,0.05 0.03,0.05 0.02,0.05 0.03,0.05 0.03,0.04 0.04,0.05 0.03,0.04 0.04,0.05 0.04,0.04 0.04,0.04 0.05,0.03 0.04,0.03 0.05,0.03 0.03,0.01 0.02,0.02 0.03,0.01 0.03,0.01 0.02,0.01 0.03,0 0.03,0.01 0.03,0.01 0.03,0 0.03,0 0.03,0.01 0.03,0 c 0.05,0 0.29,0 0.5,-0.13 -0.28,-0.05 -0.47,-0.3 -0.47,-0.54 0,-0.16 0.1,-0.35 0.37,-0.35 0.22,0 0.54,0.18 0.54,0.58 0,0.52 -0.59,0.66 -0.92,0.66 -0.58,0 -0.93,-0.53 -1.05,-0.76 -0.25,0.66 -0.79,0.76 -1.07,0.76 -1.04,0 -1.61,-1.29 -1.61,-1.53 0,-0.1 0.1,-0.1 0.12,-0.1 0.08,0 0.11,0.02 0.13,0.11 0.34,1.05 1,1.3 1.34,1.3 0.18,0 0.53,-0.09 0.53,-0.67 0,-0.31 -0.17,-0.97 -0.53,-2.36 -0.16,-0.62 -0.51,-1.04 -0.95,-1.04 -0.06,0 -0.29,0 -0.5,0.13 0.25,0.05 0.47,0.26 0.47,0.54 0,0.27 -0.22,0.35 -0.37,0.35 -0.3,0 -0.54,-0.26 -0.54,-0.58 0,-0.46 0.49,-0.65 0.93,-0.65 0.66,0 1.02,0.69 1.05,0.75 0.11,-0.37 0.47,-0.75 1.07,-0.75 1.02,0 1.59,1.28 1.59,1.53 0,0.1 -0.09,0.1 -0.12,0.1 -0.09,0 -0.11,-0.05 -0.13,-0.11 -0.33,-1.07 -1,-1.31 -1.32,-1.31 -0.39,0 -0.55,0.32 -0.55,0.66 0,0.22 0.06,0.44 0.17,0.87 z"
         id="path13809" /><path
         style="fill:#000000;stroke-width:0"
         inkscape:connector-curvature="0"
         d="m 241.62,709.61 -0.01,0.07 0,0.08 0,0.08 0,0.08 -0.01,0.17 -0.01,0.17 -0.02,0.18 -0.02,0.19 -0.03,0.2 -0.03,0.2 -0.04,0.2 -0.04,0.21 -0.06,0.21 -0.06,0.21 -0.07,0.21 -0.08,0.21 -0.04,0.11 -0.04,0.11 -0.05,0.1 -0.05,0.11 c -0.6,1.22 -1.45,1.87 -1.55,1.87 -0.06,0 -0.1,-0.04 -0.1,-0.1 0,-0.03 0,-0.05 0.19,-0.23 0.97,-0.99 1.54,-2.57 1.54,-4.64 0,-1.7 -0.37,-3.45 -1.6,-4.7 -0.13,-0.12 -0.13,-0.14 -0.13,-0.17 0,-0.06 0.04,-0.1 0.1,-0.1 0.1,0 0.99,0.68 1.58,1.94 0.51,1.09 0.63,2.19 0.63,3.03 z"
         id="path13811" /></g>    <path
       inkscape:connector-curvature="0"
       id="path13813"
       d="m 530.86794,161.11517 21.3161,-32.09295 0.0735,32.09295"
       style="fill:none;fill-rule:evenodd;stroke:#000000;stroke-width:0.38089266;stroke-linecap:butt;stroke-linejoin:miter;stroke-miterlimit:4;stroke-dasharray:3.04714131, 3.04714131;stroke-dashoffset:0;stroke-opacity:1" />
    <g
       id="g14369"
       transform="translate(-11.5,22.75)">
      <path
         id="path14096"
         d="m 569.89513,142.56934 0,-0.01 0,-0.01 0,-0.01 0.01,-0.01 0,-0.02 0,-0.02 0.01,-0.01 0,-0.01 0,-0.01 0,-0.01 0,-0.01 0.01,-0.01 0,-0.01 0,0 0,-0.01 0,-0.01 0,0 0,-0.01 c 0,-0.17 -0.12,-0.27 -0.29,-0.27 -0.1,0 -0.37,0.07 -0.41,0.43 -0.18,-0.37 -0.53,-0.63 -0.92,-0.63 l 0.01,0.22 c 0.65,0 0.79,0.81 0.79,0.86 0,0.05 -0.02,0.11 -0.03,0.15 l -0.48,1.89 c -0.06,0.26 -0.28,0.51 -0.5,0.7 -0.21,0.18 -0.52,0.36 -0.81,0.36 -0.5,0 -0.64,-0.52 -0.64,-0.92 0,-0.47 0.28,-1.65 0.55,-2.15 0.27,-0.49 0.7,-0.89 1.12,-0.89 l -0.01,-0.22 c -1.14,0 -2.37,1.4 -2.37,2.83 0,0.98 0.6,1.57 1.32,1.57 0.59,0 1.06,-0.47 1.16,-0.58 l 0.01,0.01 c -0.21,0.88 -0.33,1.29 -0.33,1.31 -0.04,0.09 -0.38,1.07 -1.44,1.07 -0.18,0 -0.51,-0.01 -0.79,-0.1 0.3,-0.09 0.41,-0.34 0.41,-0.51 0,-0.16 -0.11,-0.35 -0.38,-0.35 -0.22,0 -0.54,0.18 -0.54,0.58 0,0.4 0.37,0.6 1.32,0.6 1.25,0 1.96,-0.77 2.11,-1.37 z"
         inkscape:connector-curvature="0"
         style="font-style:normal;font-variant:normal;font-weight:normal;font-stretch:normal;letter-spacing:normal;word-spacing:normal;text-anchor:start;fill:#000000;fill-opacity:1;fill-rule:evenodd;stroke:#000000;stroke-width:0;stroke-linecap:butt;stroke-linejoin:miter;stroke-miterlimit:10.43299961;stroke-dasharray:none;stroke-dashoffset:0;stroke-opacity:1" />
      <path
         id="path14098"
         d="m 573.60513,148.69934 0,-0.01 0,0 0,0 0,-0.01 0,0 0,0 0,-0.01 0,0 0,0 0,-0.01 -0.01,0 0,-0.01 0,0 -0.01,-0.01 0,0 -0.01,-0.01 0,-0.01 -0.01,0 0,-0.01 0,0 -0.01,-0.01 0,0 0,0 -0.01,-0.01 0,0 -0.01,-0.01 0,0 -0.01,-0.01 0,0 -0.01,-0.01 0,0 -0.01,-0.01 0,-0.01 -0.01,0 -0.01,-0.01 0,-0.01 -0.01,0 -0.01,-0.01 0,-0.01 -0.01,0 -0.01,-0.01 -0.01,-0.01 c -1.24,-1.25 -1.56,-3.13 -1.56,-4.65 0,-1.73 0.38,-3.46 1.61,-4.7 0.12,-0.12 0.12,-0.14 0.12,-0.17 0,-0.07 -0.04,-0.1 -0.09,-0.1 -0.11,0 -1,0.68 -1.59,1.94 -0.5,1.09 -0.62,2.2 -0.62,3.03 0,0.78 0.1,1.98 0.65,3.1 0.6,1.22 1.45,1.87 1.56,1.87 0.05,0 0.09,-0.03 0.09,-0.1 z"
         inkscape:connector-curvature="0"
         style="font-style:normal;font-variant:normal;font-weight:normal;font-stretch:normal;letter-spacing:normal;word-spacing:normal;text-anchor:start;fill:#000000;fill-opacity:1;fill-rule:evenodd;stroke:#000000;stroke-width:0;stroke-linecap:butt;stroke-linejoin:miter;stroke-miterlimit:10.43299961;stroke-dasharray:none;stroke-dashoffset:0;stroke-opacity:1" />
      <path
         id="path14100"
         d="m 577.51513,143.31934 0.01,-0.03 0,-0.03 0.01,-0.03 0.01,-0.04 0.01,-0.04 0.01,-0.04 0.02,-0.04 0.01,-0.05 0.02,-0.04 0.01,-0.05 0.02,-0.05 0.02,-0.05 0.03,-0.05 0.02,-0.05 0.03,-0.05 0.02,-0.05 0.03,-0.05 0.03,-0.04 0.04,-0.05 0.03,-0.04 0.04,-0.05 0.04,-0.04 0.04,-0.04 0.04,-0.03 0.05,-0.03 0.05,-0.03 0.02,-0.01 0.03,-0.02 0.03,-0.01 0.02,-0.01 0.03,-0.01 0.03,0 0.03,-0.01 0.03,-0.01 0.03,0 0.03,0 0.03,-0.01 0.03,0 c 0.05,0 0.29,0 0.5,0.13 -0.28,0.05 -0.48,0.3 -0.48,0.54 0,0.16 0.11,0.35 0.38,0.35 0.22,0 0.54,-0.18 0.54,-0.58 0,-0.52 -0.59,-0.66 -0.93,-0.66 -0.57,0 -0.92,0.53 -1.04,0.76 -0.25,-0.66 -0.79,-0.76 -1.07,-0.76 -1.04,0 -1.61,1.29 -1.61,1.53 0,0.1 0.1,0.1 0.12,0.1 0.08,0 0.11,-0.02 0.13,-0.11 0.34,-1.05 1,-1.3 1.34,-1.3 0.18,0 0.53,0.09 0.53,0.67 0,0.31 -0.17,0.97 -0.53,2.36 -0.16,0.62 -0.51,1.04 -0.95,1.04 -0.06,0 -0.29,0 -0.5,-0.13 0.25,-0.05 0.47,-0.26 0.47,-0.54 0,-0.27 -0.22,-0.35 -0.37,-0.35 -0.3,0 -0.54,0.26 -0.54,0.58 0,0.46 0.49,0.65 0.93,0.65 0.66,0 1.01,-0.69 1.04,-0.75 0.12,0.37 0.48,0.75 1.08,0.75 1.02,0 1.59,-1.28 1.59,-1.53 0,-0.1 -0.09,-0.1 -0.12,-0.1 -0.09,0 -0.11,0.05 -0.13,0.11 -0.33,1.07 -1,1.31 -1.32,1.31 -0.39,0 -0.55,-0.32 -0.55,-0.66 0,-0.22 0.06,-0.44 0.17,-0.87 z"
         inkscape:connector-curvature="0"
         style="font-style:normal;font-variant:normal;font-weight:normal;font-stretch:normal;letter-spacing:normal;word-spacing:normal;text-anchor:start;fill:#000000;fill-opacity:1;fill-rule:evenodd;stroke:#000000;stroke-width:0;stroke-linecap:butt;stroke-linejoin:miter;stroke-miterlimit:10.43299961;stroke-dasharray:none;stroke-dashoffset:0;stroke-opacity:1" />
      <path
         id="path14102"
         d="m 582.76513,143.82934 -0.01,-0.07 0,-0.08 0,-0.08 0,-0.08 -0.01,-0.17 -0.01,-0.17 -0.02,-0.18 -0.02,-0.19 -0.03,-0.2 -0.03,-0.2 -0.04,-0.2 -0.04,-0.21 -0.06,-0.21 -0.06,-0.21 -0.07,-0.21 -0.08,-0.21 -0.04,-0.11 -0.04,-0.11 -0.05,-0.1 -0.05,-0.11 c -0.6,-1.22 -1.45,-1.87 -1.55,-1.87 -0.06,0 -0.1,0.04 -0.1,0.1 0,0.03 0,0.05 0.19,0.23 0.97,0.99 1.54,2.57 1.54,4.64 0,1.7 -0.37,3.45 -1.6,4.7 -0.13,0.12 -0.13,0.14 -0.13,0.17 0,0.06 0.04,0.1 0.1,0.1 0.1,0 0.99,-0.68 1.58,-1.94 0.51,-1.09 0.63,-2.19 0.63,-3.03 z"
         inkscape:connector-curvature="0"
         style="font-style:normal;font-variant:normal;font-weight:normal;font-stretch:normal;letter-spacing:normal;word-spacing:normal;text-anchor:start;fill:#000000;fill-opacity:1;fill-rule:evenodd;stroke:#000000;stroke-width:0;stroke-linecap:butt;stroke-linejoin:miter;stroke-miterlimit:10.43299961;stroke-dasharray:none;stroke-dashoffset:0;stroke-opacity:1" />
    </g>
    <path
       id="path14362"
       d="m 528.59482,164.40512 0.01,-0.03 0,-0.03 0.01,-0.03 0.01,-0.04 0.01,-0.04 0.01,-0.04 0.02,-0.04 0.01,-0.05 0.02,-0.04 0.01,-0.05 0.02,-0.05 0.02,-0.05 0.03,-0.05 0.02,-0.05 0.03,-0.05 0.02,-0.05 0.03,-0.05 0.03,-0.04 0.04,-0.05 0.03,-0.04 0.04,-0.05 0.04,-0.04 0.04,-0.04 0.04,-0.03 0.05,-0.03 0.05,-0.03 0.02,-0.01 0.03,-0.02 0.03,-0.01 0.02,-0.01 0.03,-0.01 0.03,0 0.03,-0.01 0.03,-0.01 0.03,0 0.03,0 0.03,-0.01 0.03,0 c 0.05,0 0.29,0 0.5,0.13 -0.28,0.05 -0.48,0.3 -0.48,0.54 0,0.16 0.11,0.35 0.38,0.35 0.22,0 0.54,-0.18 0.54,-0.58 0,-0.52 -0.59,-0.66 -0.93,-0.66 -0.57,0 -0.92,0.53 -1.04,0.76 -0.25,-0.66 -0.79,-0.76 -1.07,-0.76 -1.04,0 -1.61,1.29 -1.61,1.53 0,0.1 0.1,0.1 0.12,0.1 0.08,0 0.11,-0.02 0.13,-0.11 0.34,-1.05 1,-1.3 1.34,-1.3 0.18,0 0.53,0.09 0.53,0.67 0,0.31 -0.17,0.97 -0.53,2.36 -0.16,0.62 -0.51,1.04 -0.95,1.04 -0.06,0 -0.29,0 -0.5,-0.13 0.25,-0.05 0.47,-0.26 0.47,-0.54 0,-0.27 -0.22,-0.35 -0.37,-0.35 -0.3,0 -0.54,0.26 -0.54,0.58 0,0.46 0.49,0.65 0.93,0.65 0.66,0 1.01,-0.69 1.04,-0.75 0.12,0.37 0.48,0.75 1.08,0.75 1.02,0 1.59,-1.28 1.59,-1.53 0,-0.1 -0.09,-0.1 -0.12,-0.1 -0.09,0 -0.11,0.05 -0.13,0.11 -0.33,1.07 -1,1.31 -1.32,1.31 -0.39,0 -0.55,-0.32 -0.55,-0.66 0,-0.22 0.06,-0.44 0.17,-0.87 z"
       inkscape:connector-curvature="0"
       style="font-style:normal;font-variant:normal;font-weight:normal;font-stretch:normal;letter-spacing:normal;word-spacing:normal;text-anchor:start;fill:#000000;fill-opacity:1;fill-rule:evenodd;stroke:#000000;stroke-width:0;stroke-linecap:butt;stroke-linejoin:miter;stroke-miterlimit:10.43299961;stroke-dasharray:none;stroke-dashoffset:0;stroke-opacity:1" />
    <path
       style="fill:none;fill-rule:evenodd;stroke:#000000;stroke-width:0.5;stroke-linecap:butt;stroke-linejoin:miter;stroke-miterlimit:4;stroke-dasharray:none;stroke-opacity:1;marker-start:url(#marker14383);marker-end:url(#marker12985)"
       d="m 533.80115,164.17393 16.875,0"
       id="path14375"
       inkscape:connector-curvature="0" />
    <path
       style="fill:none;fill-rule:evenodd;stroke:#000000;stroke-width:0.51052266;stroke-linecap:butt;stroke-linejoin:miter;stroke-miterlimit:4;stroke-dasharray:none;stroke-opacity:1;marker-start:url(#marker14479);marker-end:url(#marker14563)"
       d="M 554.48928,158.98185 554.26072,130.332"
       id="path14471"
       inkscape:connector-curvature="0" />
    <circle
       style="opacity:1;fill:#e0edfa;fill-opacity:0;stroke:#000000;stroke-width:0.5;stroke-linejoin:bevel;stroke-miterlimit:10;stroke-dasharray:1.5, 1.5;stroke-dashoffset:0;stroke-opacity:1"
       id="path15963"
       cx="432.1467"
       cy="160.13467"
       r="18.915106" />
    <path
       style="opacity:1;fill:#e0edfa;fill-opacity:0;stroke:#000000;stroke-width:0.53086978;stroke-linejoin:bevel;stroke-miterlimit:10;stroke-dasharray:none;stroke-dashoffset:0;stroke-opacity:1;marker-end:url(#Arrow1Lend)"
       id="path15988"
       sodipodi:type="arc"
       sodipodi:cx="330.53232"
       sodipodi:cy="-140.54823"
       sodipodi:rx="100.69009"
       sodipodi:ry="43.935925"
       sodipodi:start="0"
       sodipodi:end="2.5238975"
       sodipodi:open="true"
       d="M 431.2224,-140.54823 A 100.69009,43.935925 0 0 1 361.13817,-98.691159 100.69009,43.935925 0 0 1 248.4482,-115.1024"
       transform="scale(1,-1)" />
  </g>
</svg>
